<svg width="110" height="110" viewBox="0 0 110 110" fill="none" xmlns="http://www.w3.org/2000/svg">
<path d="M59 7C59 6.44771 59.4477 6 60 6C60.5523 6 61 6.44772 61 7V54C61 54.5523 60.5523 55 60 55C59.4477 55 59 54.5523 59 54V7Z" fill="#BCADC8" fill-opacity="0.96"/>
<path d="M60 55C59.4477 55 59 54.5523 59 54C59 53.4477 59.4477 53 60 53L87 53C87.5523 53 88 53.4477 88 54C88 54.5523 87.5523 55 87 55L60 55Z" fill="#BCADC8" fill-opacity="0.96"/>
<path d="M60 67C58.2928 67 56.6023 66.6637 55.0251 66.0104C53.4479 65.3571 52.0148 64.3995 50.8076 63.1924C49.6004 61.9852 48.6429 60.5521 47.9896 58.9749C47.3363 57.3976 47 55.7072 47 54C47 52.2928 47.3363 50.6023 47.9896 49.0251C48.6429 47.4479 49.6005 46.0148 50.8076 44.8076C52.0148 43.6004 53.4479 42.6429 55.0251 41.9896C56.6024 41.3362 58.2928 41 60 41" stroke="#BCADC8" stroke-opacity="0.96" stroke-width="2"/>
<circle cx="60" cy="67" r="1" fill="#BCADC8" fill-opacity="0.96"/>
<circle cx="60" cy="74" r="1" fill="#BCADC8" fill-opacity="0.96"/>
<circle cx="60" cy="81" r="1" fill="#BCADC8" fill-opacity="0.96"/>
<circle cx="60" cy="88" r="1" fill="#BCADC8" fill-opacity="0.96"/>
<circle cx="60" cy="96" r="1" fill="#BCADC8" fill-opacity="0.96"/>
<circle cx="60" cy="103" r="1" fill="#BCADC8" fill-opacity="0.96"/>
<path d="M60 74C57.3735 74 54.7728 73.4827 52.3463 72.4776C49.9198 71.4725 47.715 69.9993 45.8578 68.1421C44.0007 66.285 42.5275 64.0802 41.5224 61.6537C40.5173 59.2271 40 56.6264 40 54C40 51.3735 40.5173 48.7728 41.5224 46.3463C42.5275 43.9198 44.0007 41.715 45.8579 39.8578C47.715 38.0007 49.9198 36.5275 52.3463 35.5224C54.7728 34.5173 57.3736 34 60 34" stroke="#BCADC8" stroke-opacity="0.96" stroke-width="2"/>
<path d="M59.9999 81C56.4543 81 52.9433 80.3016 49.6675 78.9447C46.3917 77.5879 43.4153 75.5991 40.9081 73.0919C38.4009 70.5847 36.4121 67.6082 35.0552 64.3324C33.6984 61.0566 33 57.5457 33 54C33 50.4543 33.6984 46.9433 35.0553 43.6675C36.4121 40.3917 38.4009 37.4153 40.9081 34.9081C43.4153 32.4009 46.3918 30.4121 49.6676 29.0552C52.9433 27.6984 56.4543 27 60 27" stroke="#BCADC8" stroke-opacity="0.96" stroke-width="2"/>
<path d="M59.9999 88C55.535 88 51.1138 87.1206 46.9887 85.4119C42.8636 83.7032 39.1155 81.1988 35.9583 78.0416C32.8012 74.8844 30.2967 71.1363 28.5881 67.0112C26.8794 62.8861 26 58.4649 26 54C26 49.535 26.8794 45.1138 28.5881 40.9887C30.2968 36.8637 32.8012 33.1155 35.9584 29.9583C39.1156 26.8011 42.8637 24.2967 46.9888 22.5881C51.1138 20.8794 55.5351 20 60 20" stroke="#BCADC8" stroke-opacity="0.96" stroke-width="2"/>
<path d="M59.9999 96C54.6157 96 49.2843 94.9395 44.3099 92.8791C39.3356 90.8186 34.8158 87.7986 31.0086 83.9914C27.2014 80.1842 24.1814 75.6643 22.1209 70.69C20.0605 65.7156 19 60.3842 19 55C19 49.6158 20.0605 44.2843 22.121 39.3099C24.1814 34.3356 27.2014 29.8158 31.0086 26.0086C34.8158 22.2014 39.3356 19.1813 44.31 17.1209C49.2843 15.0605 54.6158 14 60 14" stroke="#BCADC8" stroke-opacity="0.96" stroke-width="2"/>
<path d="M59.9999 103C53.6965 103 47.4547 101.758 41.6311 99.3462C35.8075 96.934 30.516 93.3983 26.0588 88.9411C21.6016 84.4839 18.066 79.1924 15.6538 73.3688C13.2415 67.5451 12 61.3034 12 55C12 48.6965 13.2416 42.4548 15.6538 36.6311C18.066 30.8075 21.6017 25.516 26.0589 21.0588C30.5161 16.6016 35.8076 13.066 41.6312 10.6538C47.4548 8.24153 53.6966 6.99999 60 7" stroke="#BCADC8" stroke-opacity="0.96" stroke-width="2"/>
</svg>
